<svg width="18" height="18" viewBox="0 0 18 18" fill="none" xmlns="http://www.w3.org/2000/svg">
<path fill-rule="evenodd" clip-rule="evenodd" d="M12 0.75C12 0.551088 12.079 0.360322 12.2197 0.21967C12.3603 0.0790175 12.5511 0 12.75 0H17.25C17.4489 0 17.6397 0.0790175 17.7803 0.21967C17.921 0.360322 18 0.551088 18 0.75V5.25C18 5.44891 17.921 5.63968 17.7803 5.78033C17.6397 5.92098 17.4489 6 17.25 6C17.0511 6 16.8603 5.92098 16.7197 5.78033C16.579 5.63968 16.5 5.44891 16.5 5.25V2.56L12.53 6.53C12.4613 6.60369 12.3785 6.66279 12.2865 6.70378C12.1945 6.74477 12.0952 6.76682 11.9945 6.76859C11.8938 6.77037 11.7938 6.75184 11.7004 6.71412C11.607 6.6764 11.5222 6.62026 11.451 6.54904C11.3797 6.47782 11.3236 6.39299 11.2859 6.2996C11.2482 6.20621 11.2296 6.10618 11.2314 6.00548C11.2332 5.90478 11.2552 5.80546 11.2962 5.71346C11.3372 5.62146 11.3963 5.53866 11.47 5.47L15.44 1.5H12.75C12.5511 1.5 12.3603 1.42098 12.2197 1.28033C12.079 1.13968 12 0.948912 12 0.75ZM0 0.75C0 0.551088 0.0790175 0.360322 0.21967 0.21967C0.360322 0.0790175 0.551088 0 0.75 0H5.25C5.44891 0 5.63968 0.0790175 5.78033 0.21967C5.92098 0.360322 6 0.551088 6 0.75C6 0.948912 5.92098 1.13968 5.78033 1.28033C5.63968 1.42098 5.44891 1.5 5.25 1.5H2.56L6.53 5.47C6.66248 5.61217 6.7346 5.80022 6.73118 5.99452C6.72775 6.18882 6.64903 6.37421 6.51162 6.51162C6.37421 6.64903 6.18882 6.72775 5.99452 6.73118C5.80022 6.7346 5.61217 6.66248 5.47 6.53L1.5 2.56V5.25C1.5 5.44891 1.42098 5.63968 1.28033 5.78033C1.13968 5.92098 0.948912 6 0.75 6C0.551088 6 0.360322 5.92098 0.21967 5.78033C0.0790175 5.63968 0 5.44891 0 5.25V0.75ZM11.47 12.53C11.3963 12.4613 11.3372 12.3785 11.2962 12.2865C11.2552 12.1945 11.2332 12.0952 11.2314 11.9945C11.2296 11.8938 11.2482 11.7938 11.2859 11.7004C11.3236 11.607 11.3797 11.5222 11.451 11.451C11.5222 11.3797 11.607 11.3236 11.7004 11.2859C11.7938 11.2482 11.8938 11.2296 11.9945 11.2314C12.0952 11.2332 12.1945 11.2552 12.2865 11.2962C12.3785 11.3372 12.4613 11.3963 12.53 11.47L16.5 15.44V12.75C16.5 12.5511 16.579 12.3603 16.7197 12.2197C16.8603 12.079 17.0511 12 17.25 12C17.4489 12 17.6397 12.079 17.7803 12.2197C17.921 12.3603 18 12.5511 18 12.75V17.25C18 17.4489 17.921 17.6397 17.7803 17.7803C17.6397 17.921 17.4489 18 17.25 18H12.75C12.5511 18 12.3603 17.921 12.2197 17.7803C12.079 17.6397 12 17.4489 12 17.25C12 17.0511 12.079 16.8603 12.2197 16.7197C12.3603 16.579 12.5511 16.5 12.75 16.5H15.44L11.47 12.53ZM6.53 11.47C6.67045 11.6106 6.74934 11.8012 6.74934 12C6.74934 12.1988 6.67045 12.3894 6.53 12.53L2.56 16.5H5.25C5.44891 16.5 5.63968 16.579 5.78033 16.7197C5.92098 16.8603 6 17.0511 6 17.25C6 17.4489 5.92098 17.6397 5.78033 17.7803C5.63968 17.921 5.44891 18 5.25 18H0.75C0.551088 18 0.360322 17.921 0.21967 17.7803C0.0790175 17.6397 0 17.4489 0 17.25V12.75C0 12.5511 0.0790175 12.3603 0.21967 12.2197C0.360322 12.079 0.551088 12 0.75 12C0.948912 12 1.13968 12.079 1.28033 12.2197C1.42098 12.3603 1.5 12.5511 1.5 12.75V15.44L5.47 11.47C5.61063 11.3295 5.80125 11.2507 6 11.2507C6.19875 11.2507 6.38937 11.3295 6.53 11.47Z" fill="black"/>
</svg>
