<svg width="20" height="18" viewBox="0 0 20 18" fill="none" xmlns="http://www.w3.org/2000/svg">
<path d="M14.3238 1.72108V1.72109H14.3291C16.9088 1.72109 19 3.8123 19 6.39195C19 7.46736 18.5339 8.60963 17.7134 9.77224C16.8977 10.9281 15.7855 12.0272 14.6277 12.9949C12.6647 14.6355 10.6623 15.8229 10.0011 16.1982C9.34295 15.8204 7.33912 14.618 5.37408 12.9679C4.21542 11.995 3.10224 10.8927 2.2858 9.73911C1.46378 8.57762 1 7.44566 1 6.39195C1 3.81229 3.0912 1.72109 5.67085 1.72109V1.72116L5.68266 1.72102C7.05201 1.70486 8.3556 2.30712 9.23093 3.36026L9.99495 4.27949L10.7649 3.36521C11.6484 2.3161 12.9522 1.71375 14.3238 1.72108Z" stroke="#136175" stroke-width="2"/>
</svg>
