<svg width="13" height="13" viewBox="0 0 13 13" fill="none" xmlns="http://www.w3.org/2000/svg">
<path d="M6.50065 3.79232C6.35699 3.79232 6.21922 3.84939 6.11764 3.95097C6.01606 4.05255 5.95899 4.19033 5.95899 4.33398V6.50065C5.95899 6.64431 6.01606 6.78209 6.11764 6.88367C6.21922 6.98525 6.35699 7.04232 6.50065 7.04232C6.64431 7.04232 6.78209 6.98525 6.88367 6.88367C6.98525 6.78209 7.04232 6.64431 7.04232 6.50065V4.33398C7.04232 4.19033 6.98525 4.05255 6.88367 3.95097C6.78209 3.84939 6.64431 3.79232 6.50065 3.79232ZM6.99899 8.46148C6.98713 8.42697 6.97074 8.39418 6.95024 8.36398L6.88524 8.28273C6.80907 8.20757 6.71234 8.15666 6.60726 8.13642C6.50218 8.11617 6.39346 8.1275 6.29482 8.16898C6.22918 8.19642 6.16872 8.23489 6.11607 8.28273C6.06587 8.33335 6.02615 8.39337 5.99919 8.45937C5.97224 8.52536 5.95857 8.59603 5.95899 8.66732C5.95984 8.7381 5.97456 8.80803 6.00232 8.87315C6.02665 8.94037 6.06546 9.00142 6.11601 9.05196C6.16656 9.10251 6.2276 9.14132 6.29482 9.16565C6.35966 9.19431 6.42977 9.20911 6.50065 9.20911C6.57154 9.20911 6.64165 9.19431 6.70649 9.16565C6.77371 9.14132 6.83475 9.10251 6.8853 9.05196C6.93585 9.00142 6.97466 8.94037 6.99899 8.87315C7.02674 8.80803 7.04146 8.7381 7.04232 8.66732C7.04498 8.63126 7.04498 8.59505 7.04232 8.55898C7.03299 8.52444 7.01838 8.49155 6.99899 8.46148V8.46148ZM6.50065 1.08398C5.42934 1.08398 4.38208 1.40167 3.49131 1.99686C2.60055 2.59205 1.90628 3.43802 1.49631 4.42778C1.08633 5.41755 0.979063 6.50666 1.18807 7.55739C1.39707 8.60812 1.91296 9.57328 2.67049 10.3308C3.42803 11.0883 4.39318 11.6042 5.44391 11.8132C6.49465 12.0222 7.58376 11.915 8.57352 11.505C9.56329 11.095 10.4093 10.4008 11.0044 9.50999C11.5996 8.61922 11.9173 7.57197 11.9173 6.50065C11.9173 5.78932 11.7772 5.08496 11.505 4.42778C11.2328 3.7706 10.8338 3.17347 10.3308 2.67049C9.82783 2.16751 9.2307 1.76852 8.57352 1.4963C7.91634 1.22409 7.21198 1.08398 6.50065 1.08398V1.08398ZM6.50065 10.834C5.6436 10.834 4.8058 10.5798 4.09318 10.1037C3.38057 9.62753 2.82516 8.95076 2.49718 8.15895C2.1692 7.36713 2.08338 6.49584 2.25058 5.65526C2.41779 4.81468 2.8305 4.04255 3.43652 3.43652C4.04255 2.83049 4.81468 2.41778 5.65526 2.25058C6.49585 2.08338 7.36714 2.16919 8.15895 2.49717C8.95076 2.82515 9.62754 3.38057 10.1037 4.09318C10.5798 4.80579 10.834 5.6436 10.834 6.50065C10.834 7.64992 10.3774 8.75212 9.56478 9.56478C8.75213 10.3774 7.64993 10.834 6.50065 10.834V10.834Z" fill="#111111"/>
</svg>
