<svg width="22" height="14" viewBox="0 0 22 14" fill="none" xmlns="http://www.w3.org/2000/svg">
<path fill-rule="evenodd" clip-rule="evenodd" d="M0.5 1.875C0.5 0.839 1.34 0 2.375 0H19.625C20.66 0 21.5 0.84 21.5 1.875V11.625C21.5 12.661 20.66 13.5 19.625 13.5H2.375C2.12877 13.5 1.88495 13.4515 1.65747 13.3573C1.42998 13.263 1.22328 13.1249 1.04917 12.9508C0.875065 12.7767 0.736953 12.57 0.642726 12.3425C0.548498 12.115 0.5 11.8712 0.5 11.625V1.875ZM7.25 6.75C7.25 5.75544 7.64509 4.80161 8.34835 4.09835C9.05161 3.39509 10.0054 3 11 3C11.9946 3 12.9484 3.39509 13.6517 4.09835C14.3549 4.80161 14.75 5.75544 14.75 6.75C14.75 7.74456 14.3549 8.69839 13.6517 9.40165C12.9484 10.1049 11.9946 10.5 11 10.5C10.0054 10.5 9.05161 10.1049 8.34835 9.40165C7.64509 8.69839 7.25 7.74456 7.25 6.75ZM17.75 6C17.5511 6 17.3603 6.07902 17.2197 6.21967C17.079 6.36032 17 6.55109 17 6.75V6.758C17 7.172 17.336 7.508 17.75 7.508H17.758C17.9569 7.508 18.1477 7.42898 18.2883 7.28833C18.429 7.14768 18.508 6.95691 18.508 6.758V6.75C18.508 6.55109 18.429 6.36032 18.2883 6.21967C18.1477 6.07902 17.9569 6 17.758 6H17.75ZM3.5 6.75C3.5 6.55109 3.57902 6.36032 3.71967 6.21967C3.86032 6.07902 4.05109 6 4.25 6H4.258C4.45691 6 4.64768 6.07902 4.78833 6.21967C4.92898 6.36032 5.008 6.55109 5.008 6.75V6.758C5.008 6.95691 4.92898 7.14768 4.78833 7.28833C4.64768 7.42898 4.45691 7.508 4.258 7.508H4.25C4.05109 7.508 3.86032 7.42898 3.71967 7.28833C3.57902 7.14768 3.5 6.95691 3.5 6.758V6.75Z" fill="#636364"/>
</svg>
