<svg width="24" height="24" viewBox="0 0 24 24" fill="none" xmlns="http://www.w3.org/2000/svg">
<path fill-rule="evenodd" clip-rule="evenodd" d="M12.53 10.7199C12.3894 10.5795 12.1988 10.5006 12 10.5006C11.8013 10.5006 11.6106 10.5795 11.47 10.7199L3.97 18.2199C3.83752 18.3621 3.7654 18.5501 3.76883 18.7444C3.77225 18.9387 3.85097 19.1241 3.98838 19.2615C4.12579 19.3989 4.31118 19.4777 4.50548 19.4811C4.69978 19.4845 4.88783 19.4124 5.03 19.2799L12 12.3099L18.97 19.2799C19.1122 19.4124 19.3002 19.4845 19.4945 19.4811C19.6888 19.4777 19.8742 19.3989 20.0116 19.2615C20.149 19.1241 20.2277 18.9387 20.2312 18.7444C20.2346 18.5501 20.1625 18.3621 20.03 18.2199L12.53 10.7199Z" fill="black"/>
<path fill-rule="evenodd" clip-rule="evenodd" d="M12.53 4.72009C12.3894 4.57964 12.1988 4.50075 12 4.50075C11.8013 4.50075 11.6106 4.57964 11.47 4.72009L3.97 12.2201C3.89631 12.2888 3.83721 12.3716 3.79622 12.4636C3.75523 12.5556 3.73319 12.6549 3.73141 12.7556C3.72963 12.8563 3.74816 12.9563 3.78588 13.0497C3.8236 13.1431 3.87974 13.2279 3.95096 13.2991C4.02218 13.3703 4.10702 13.4265 4.2004 13.4642C4.29379 13.5019 4.39382 13.5205 4.49452 13.5187C4.59523 13.5169 4.69454 13.4949 4.78654 13.4539C4.87854 13.4129 4.96134 13.3538 5.03 13.2801L12 6.31009L18.97 13.2801C19.1122 13.4126 19.3002 13.4847 19.4945 13.4813C19.6888 13.4778 19.8742 13.3991 20.0116 13.2617C20.149 13.1243 20.2277 12.9389 20.2312 12.7446C20.2346 12.5503 20.1625 12.3623 20.03 12.2201L12.53 4.72009Z" fill="black"/>
</svg>
