<svg width="24" height="24" viewBox="0 0 24 24" fill="none" xmlns="http://www.w3.org/2000/svg">
<path fill-rule="evenodd" clip-rule="evenodd" d="M11.47 13.2801C11.6106 13.4205 11.8012 13.4994 12 13.4994C12.1987 13.4994 12.3893 13.4205 12.53 13.2801L20.03 5.78009C20.1625 5.63792 20.2346 5.44987 20.2311 5.25557C20.2277 5.06127 20.149 4.87588 20.0116 4.73847C19.8742 4.60106 19.6888 4.52234 19.4945 4.51892C19.3002 4.51549 19.1121 4.58761 18.97 4.72009L12 11.6901L5.02997 4.72009C4.88779 4.58761 4.69975 4.51549 4.50545 4.51892C4.31114 4.52234 4.12576 4.60106 3.98835 4.73847C3.85093 4.87588 3.77222 5.06127 3.76879 5.25557C3.76537 5.44987 3.83749 5.63792 3.96997 5.78009L11.47 13.2801Z" fill="black"/>
<path fill-rule="evenodd" clip-rule="evenodd" d="M11.47 19.2799C11.6106 19.4204 11.8012 19.4992 12 19.4992C12.1987 19.4992 12.3893 19.4204 12.53 19.2799L20.03 11.7799C20.1037 11.7112 20.1628 11.6284 20.2038 11.5364C20.2447 11.4444 20.2668 11.3451 20.2686 11.2444C20.2703 11.1437 20.2518 11.0437 20.2141 10.9503C20.1764 10.8569 20.1202 10.7721 20.049 10.7009C19.9778 10.6297 19.893 10.5735 19.7996 10.5358C19.7062 10.4981 19.6061 10.4795 19.5054 10.4813C19.4047 10.4831 19.3054 10.5051 19.2134 10.5461C19.1214 10.5871 19.0386 10.6462 18.97 10.7199L12 17.6899L5.02997 10.7199C4.88779 10.5874 4.69975 10.5153 4.50545 10.5187C4.31114 10.5222 4.12576 10.6009 3.98835 10.7383C3.85093 10.8757 3.77222 11.0611 3.76879 11.2554C3.76537 11.4497 3.83749 11.6377 3.96997 11.7799L11.47 19.2799Z" fill="black"/>
</svg>
