<svg width="20" height="14" viewBox="0 0 20 14" fill="none" xmlns="http://www.w3.org/2000/svg">
<path fill-rule="evenodd" clip-rule="evenodd" d="M5.5 3.25C5.5 2.45435 5.81607 1.69129 6.37868 1.12868C6.94129 0.566071 7.70435 0.25 8.5 0.25H11.5C12.2956 0.25 13.0587 0.566071 13.6213 1.12868C14.1839 1.69129 14.5 2.45435 14.5 3.25V3.455C15.433 3.54 16.357 3.652 17.274 3.789C18.728 4.007 19.75 5.272 19.75 6.706V9.739C19.75 10.95 19.016 12.091 17.814 12.491C15.2938 13.3275 12.6554 13.7526 10 13.75C7.27 13.75 4.643 13.308 2.186 12.491C0.984 12.091 0.25 10.95 0.25 9.739V6.706C0.25 5.272 1.272 4.006 2.726 3.789C3.64729 3.65122 4.57234 3.53984 5.5 3.455V3.25ZM13 3.25V3.34C11.0018 3.21865 8.99816 3.21865 7 3.34V3.25C7 2.85218 7.15804 2.47064 7.43934 2.18934C7.72064 1.90804 8.10218 1.75 8.5 1.75H11.5C11.8978 1.75 12.2794 1.90804 12.5607 2.18934C12.842 2.47064 13 2.85218 13 3.25ZM10 11.5C10.1989 11.5 10.3897 11.421 10.5303 11.2803C10.671 11.1397 10.75 10.9489 10.75 10.75C10.75 10.5511 10.671 10.3603 10.5303 10.2197C10.3897 10.079 10.1989 10 10 10C9.80109 10 9.61032 10.079 9.46967 10.2197C9.32902 10.3603 9.25 10.5511 9.25 10.75C9.25 10.9489 9.32902 11.1397 9.46967 11.2803C9.61032 11.421 9.80109 11.5 10 11.5Z" fill="#636364"/>
</svg>
