<svg width="60" height="44" viewBox="0 0 60 44" fill="none" xmlns="http://www.w3.org/2000/svg">
<path d="M48.6667 27.3332C47.9112 27.3332 47.2783 27.0772 46.7681 26.5652C46.2561 26.0549 46.0001 25.4221 46.0001 24.6665V19.3332H40.6667C39.9112 19.3332 39.2783 19.0772 38.7681 18.5652C38.2561 18.0549 38.0001 17.4221 38.0001 16.6665C38.0001 15.9109 38.2561 15.2772 38.7681 14.7652C39.2783 14.2549 39.9112 13.9998 40.6667 13.9998H46.0001V8.6665C46.0001 7.91095 46.2561 7.27717 46.7681 6.76517C47.2783 6.25495 47.9112 5.99984 48.6667 5.99984C49.4223 5.99984 50.0552 6.25495 50.5654 6.76517C51.0774 7.27717 51.3334 7.91095 51.3334 8.6665V13.9998H56.6667C57.4223 13.9998 58.0552 14.2549 58.5654 14.7652C59.0774 15.2772 59.3334 15.9109 59.3334 16.6665C59.3334 17.4221 59.0774 18.0549 58.5654 18.5652C58.0552 19.0772 57.4223 19.3332 56.6667 19.3332H51.3334V24.6665C51.3334 25.4221 51.0774 26.0549 50.5654 26.5652C50.0552 27.0772 49.4223 27.3332 48.6667 27.3332ZM22.0001 21.9998C19.0667 21.9998 16.5556 20.9554 14.4667 18.8665C12.3779 16.7776 11.3334 14.2665 11.3334 11.3332C11.3334 8.39984 12.3779 5.88873 14.4667 3.79984C16.5556 1.71095 19.0667 0.666504 22.0001 0.666504C24.9334 0.666504 27.4445 1.71095 29.5334 3.79984C31.6223 5.88873 32.6667 8.39984 32.6667 11.3332C32.6667 14.2665 31.6223 16.7776 29.5334 18.8665C27.4445 20.9554 24.9334 21.9998 22.0001 21.9998ZM3.33341 43.3332C2.57786 43.3332 1.94497 43.0772 1.43475 42.5652C0.922748 42.0549 0.666748 41.4221 0.666748 40.6665V35.8665C0.666748 34.3554 1.05608 32.9661 1.83475 31.6985C2.61164 30.4327 3.64453 29.4665 4.93341 28.7998C7.68897 27.4221 10.489 26.3883 13.3334 25.6985C16.1779 25.0105 19.0667 24.6665 22.0001 24.6665C24.9334 24.6665 27.8223 25.0105 30.6667 25.6985C33.5112 26.3883 36.3112 27.4221 39.0667 28.7998C40.3556 29.4665 41.3885 30.4327 42.1654 31.6985C42.9441 32.9661 43.3334 34.3554 43.3334 35.8665V40.6665C43.3334 41.4221 43.0774 42.0549 42.5654 42.5652C42.0552 43.0772 41.4223 43.3332 40.6667 43.3332H3.33341Z" fill="#136175"/>
</svg>
