<svg width="21" height="21" viewBox="0 0 21 21" fill="none" xmlns="http://www.w3.org/2000/svg">
<path d="M18.875 6.0498L14.6 1.8498L15.675 0.774805C16.075 0.374805 16.5543 0.174805 17.113 0.174805C17.671 0.174805 18.1417 0.374805 18.525 0.774805L19.925 2.1998C20.3083 2.58314 20.5 3.0498 20.5 3.5998C20.5 4.1498 20.3083 4.61647 19.925 4.9998L18.875 6.0498ZM2 20.6998C1.45 20.6998 0.979 20.5038 0.587 20.1118C0.195667 19.7205 0 19.2498 0 18.6998V4.6998C0 4.1498 0.195667 3.6788 0.587 3.2868C0.979 2.89547 1.45 2.6998 2 2.6998H10.925L4.875 8.7498C4.59167 9.03314 4.375 9.35814 4.225 9.7248C4.075 10.0915 4 10.4748 4 10.8748V14.6998C4 15.2498 4.196 15.7205 4.588 16.1118C4.97933 16.5038 5.45 16.6998 6 16.6998H9.825C10.225 16.6998 10.6083 16.6248 10.975 16.4748C11.3417 16.3248 11.6667 16.1081 11.95 15.8248L18 9.7498V18.6998C18 19.2498 17.8043 19.7205 17.413 20.1118C17.021 20.5038 16.55 20.6998 16 20.6998H2ZM7 14.6998C6.71667 14.6998 6.47933 14.6041 6.288 14.4128C6.096 14.2208 6 13.9831 6 13.6998V11.2748C6 11.0081 6.05 10.7538 6.15 10.5118C6.25 10.2705 6.39167 10.0581 6.575 9.8748L13.175 3.2748L17.45 7.4748L10.825 14.0998C10.6417 14.2831 10.4293 14.4291 10.188 14.5378C9.946 14.6458 9.69167 14.6998 9.425 14.6998H7Z" fill="#136175"/>
</svg>
