<svg width="24" height="24" viewBox="0 0 24 24" fill="none" xmlns="http://www.w3.org/2000/svg">
<path fill-rule="evenodd" clip-rule="evenodd" d="M19.9022 4.09817C19.5539 3.74984 19.1405 3.47353 18.6855 3.28502C18.2304 3.0965 17.7427 2.99947 17.2502 2.99947C16.7576 2.99947 16.2699 3.0965 15.8149 3.28502C15.3598 3.47353 14.9464 3.74984 14.5982 4.09817L10.0982 8.59817C9.67363 9.02234 9.35709 9.5422 9.17515 10.1141C8.99321 10.686 8.95117 11.2932 9.05258 11.8847C9.15399 12.4761 9.39587 13.0347 9.75792 13.5133C10.12 13.9919 10.5916 14.3766 11.1332 14.6352C11.3065 14.7245 11.4382 14.8778 11.5004 15.0625C11.5626 15.2473 11.5504 15.4491 11.4664 15.625C11.3824 15.8009 11.2332 15.9373 11.0504 16.0051C10.8676 16.0729 10.6656 16.0668 10.4872 15.9882C9.72928 15.6261 9.06931 15.0876 8.56268 14.4176C8.05605 13.7477 7.71755 12.966 7.57559 12.1382C7.43364 11.3104 7.49237 10.4606 7.74687 9.66013C8.00137 8.8597 8.44419 8.13201 9.03817 7.53817L13.5382 3.03817C14.0233 2.5403 14.6025 2.14374 15.2421 1.8715C15.8818 1.59926 16.5691 1.45675 17.2642 1.45226C17.9594 1.44776 18.6485 1.58136 19.2916 1.84531C19.9347 2.10925 20.519 2.49829 21.0105 2.98984C21.5021 3.48139 21.8911 4.06566 22.155 4.70876C22.419 5.35185 22.5526 6.04097 22.5481 6.7361C22.5436 7.43124 22.4011 8.11857 22.1288 8.7582C21.8566 9.39783 21.46 9.97702 20.9622 10.4622L19.2052 12.2192C19.1365 12.2929 19.0537 12.352 18.9617 12.393C18.8697 12.4339 18.7704 12.456 18.6697 12.4578C18.569 12.4595 18.469 12.441 18.3756 12.4033C18.2822 12.3656 18.1973 12.3094 18.1261 12.2382C18.0549 12.167 17.9988 12.0822 17.961 11.9888C17.9233 11.8954 17.9048 11.7954 17.9066 11.6946C17.9084 11.5939 17.9304 11.4946 17.9714 11.4026C18.0124 11.3106 18.0715 11.2278 18.1452 11.1592L19.9022 9.40217C20.2505 9.05394 20.5268 8.6405 20.7153 8.18546C20.9038 7.73043 21.0009 7.24271 21.0009 6.75017C21.0009 6.25763 20.9038 5.76991 20.7153 5.31488C20.5268 4.85984 20.2505 4.4464 19.9022 4.09817ZM12.5132 8.36517C12.599 8.18577 12.7526 8.04781 12.9401 7.98161C13.1276 7.91542 13.3337 7.92641 13.5132 8.01217C14.2711 8.3742 14.931 8.91278 15.4377 9.58269C15.9443 10.2526 16.2828 11.0343 16.4247 11.8621C16.5667 12.69 16.508 13.5398 16.2535 14.3402C15.999 15.1406 15.5561 15.8683 14.9622 16.4622L10.4622 20.9622C9.97702 21.46 9.39783 21.8566 8.7582 22.1288C8.11857 22.4011 7.43124 22.5436 6.7361 22.5481C6.04097 22.5526 5.35185 22.419 4.70876 22.155C4.06566 21.8911 3.48139 21.5021 2.98984 21.0105C2.49829 20.519 2.10925 19.9347 1.84531 19.2916C1.58136 18.6485 1.44776 17.9594 1.45226 17.2642C1.45675 16.5691 1.59926 15.8818 1.8715 15.2421C2.14374 14.6025 2.5403 14.0233 3.03817 13.5382L4.79517 11.7812C4.86383 11.7075 4.94663 11.6484 5.03863 11.6074C5.13063 11.5664 5.22994 11.5444 5.33065 11.5426C5.43135 11.5408 5.53138 11.5593 5.62477 11.597C5.71815 11.6348 5.80299 11.6909 5.87421 11.7621C5.94543 11.8334 6.00157 11.9182 6.03929 12.0116C6.07701 12.105 6.09554 12.205 6.09376 12.3057C6.09198 12.4064 6.06994 12.5057 6.02895 12.5977C5.98796 12.6897 5.92886 12.7725 5.85517 12.8412L4.09817 14.5982C3.7499 14.9464 3.47364 15.3599 3.28516 15.8149C3.09668 16.2699 2.99967 16.7576 2.99967 17.2502C2.99967 17.7427 3.09668 18.2304 3.28516 18.6854C3.47364 19.1405 3.7499 19.5539 4.09817 19.9022C4.44643 20.2504 4.85989 20.5267 5.31492 20.7152C5.76995 20.9037 6.25765 21.0007 6.75017 21.0007C7.24269 21.0007 7.73039 20.9037 8.18542 20.7152C8.64045 20.5267 9.0539 20.2504 9.40217 19.9022L13.9022 15.4022C14.3267 14.978 14.6432 14.4581 14.8252 13.8863C15.0071 13.3144 15.0492 12.7072 14.9478 12.1157C14.8464 11.5242 14.6045 10.9657 14.2424 10.4871C13.8804 10.0084 13.4088 9.6237 12.8672 9.36517C12.7783 9.32276 12.6986 9.26326 12.6327 9.19005C12.5667 9.11684 12.5159 9.03136 12.483 8.9385C12.4501 8.84564 12.4359 8.74721 12.4411 8.64884C12.4462 8.55046 12.4707 8.45407 12.5132 8.36517Z" fill="black"/>
</svg>
