<svg width="18" height="20" viewBox="0 0 18 20" fill="none" xmlns="http://www.w3.org/2000/svg">
<path d="M2.625 6.66797C3.91797 6.66797 4.96875 7.71875 4.96875 9.01172V17.6562C4.96875 18.9492 3.91797 20 2.625 20C1.33203 20 0.28125 18.9492 0.28125 17.6562V9.01172C0.28125 7.71484 1.32813 6.66797 2.625 6.66797Z" fill="#136175"/>
<path d="M9 0C10.293 0 11.3438 1.05078 11.3438 2.34375V17.6562C11.3438 18.9492 10.293 20 9 20C7.70703 20 6.65625 18.9492 6.65625 17.6562V2.34375C6.65625 1.05078 7.70703 0 9 0Z" fill="#136175"/>
<path d="M15.375 13.332C16.668 13.332 17.7188 14.3828 17.7188 15.6758V17.6563C17.7188 18.9492 16.668 20 15.375 20C14.082 20 13.0312 18.9492 13.0312 17.6563V15.6758C13.0312 14.3828 14.082 13.332 15.375 13.332Z" fill="#136175"/>
</svg>
