<svg width="14" height="12" viewBox="0 0 14 12" fill="none" xmlns="http://www.w3.org/2000/svg">
<path d="M8.00052 3.7082H2.84219L5.10885 1.44154C5.35052 1.19987 5.35052 0.79987 5.10885 0.558203C4.86719 0.316536 4.46719 0.316536 4.22552 0.558203L0.892187 3.89154C0.650521 4.1332 0.650521 4.5332 0.892187 4.77487L4.22552 8.1082C4.35052 8.2332 4.50885 8.29154 4.66719 8.29154C4.82552 8.29154 4.98385 8.2332 5.10885 8.1082C5.35052 7.86654 5.35052 7.46654 5.10885 7.22487L2.84219 4.9582H8.00052C10.4172 4.9582 12.3755 6.92487 12.3755 9.3332V10.9999C12.3755 11.3415 12.6589 11.6249 13.0005 11.6249C13.3422 11.6249 13.6255 11.3415 13.6255 10.9999V9.3332C13.6255 6.2332 11.1005 3.7082 8.00052 3.7082Z" fill="#136175"/>
</svg>
