<svg width="58" height="58" viewBox="0 0 58 58" fill="none" xmlns="http://www.w3.org/2000/svg">
<path fill-rule="evenodd" clip-rule="evenodd" d="M27.4542 1.2042C27.8643 0.794548 28.4203 0.564453 29 0.564453C29.5797 0.564453 30.1357 0.794548 30.5458 1.2042L43.6708 14.3292C44.0572 14.7439 44.2676 15.2923 44.2576 15.8591C44.2476 16.4258 44.018 16.9665 43.6172 17.3673C43.2164 17.768 42.6757 17.9976 42.109 18.0076C41.5423 18.0176 40.9938 17.8073 40.5792 17.4209L31.1875 8.02919V42.125C31.1875 42.7052 30.957 43.2616 30.5468 43.6718C30.1366 44.0821 29.5802 44.3125 29 44.3125C28.4198 44.3125 27.8634 44.0821 27.4532 43.6718C27.043 43.2616 26.8125 42.7052 26.8125 42.125V8.02919L17.4208 17.4209C17.0062 17.8073 16.4577 18.0176 15.891 18.0076C15.3243 17.9976 14.7836 17.768 14.3828 17.3673C13.982 16.9665 13.7524 16.4258 13.7424 15.8591C13.7324 15.2923 13.9428 14.7439 14.3292 14.3292L27.4542 1.2042ZM2.75 39.9375C3.33016 39.9375 3.88656 40.168 4.2968 40.5782C4.70703 40.9885 4.9375 41.5449 4.9375 42.125V48.6875C4.9375 49.8478 5.39844 50.9606 6.21891 51.7811C7.03938 52.6016 8.15218 53.0625 9.3125 53.0625H48.6875C49.8478 53.0625 50.9606 52.6016 51.7811 51.7811C52.6016 50.9606 53.0625 49.8478 53.0625 48.6875V42.125C53.0625 41.5449 53.293 40.9885 53.7032 40.5782C54.1134 40.168 54.6698 39.9375 55.25 39.9375C55.8302 39.9375 56.3866 40.168 56.7968 40.5782C57.207 40.9885 57.4375 41.5449 57.4375 42.125V48.6875C57.4375 51.0082 56.5156 53.2338 54.8747 54.8747C53.2337 56.5157 51.0081 57.4375 48.6875 57.4375H9.3125C6.99186 57.4375 4.76626 56.5157 3.12532 54.8747C1.48437 53.2338 0.5625 51.0082 0.5625 48.6875V42.125C0.5625 41.5449 0.792968 40.9885 1.2032 40.5782C1.61344 40.168 2.16984 39.9375 2.75 39.9375Z" fill="#636364"/>
</svg>
