<svg width="22" height="21" viewBox="0 0 22 21" fill="none" xmlns="http://www.w3.org/2000/svg">
<path d="M2 21C1.45 21 0.979333 20.8043 0.588 20.413C0.196 20.021 0 19.55 0 19V9C0 8.71667 0.096 8.479 0.288 8.287C0.479333 8.09567 0.716667 8 1 8C1.28333 8 1.521 8.09567 1.713 8.287C1.90433 8.479 2 8.71667 2 9V19H18C18.2833 19 18.5207 19.096 18.712 19.288C18.904 19.4793 19 19.7167 19 20C19 20.2833 18.904 20.5207 18.712 20.712C18.5207 20.904 18.2833 21 18 21H2ZM6 17C5.45 17 4.97933 16.8043 4.588 16.413C4.196 16.021 4 15.55 4 15V6C4 5.45 4.196 4.97933 4.588 4.588C4.97933 4.196 5.45 4 6 4H9V2C9 1.45 9.196 0.979 9.588 0.587C9.97933 0.195667 10.45 0 11 0H15C15.55 0 16.021 0.195667 16.413 0.587C16.8043 0.979 17 1.45 17 2V4H20C20.55 4 21.021 4.196 21.413 4.588C21.8043 4.97933 22 5.45 22 6V15C22 15.55 21.8043 16.021 21.413 16.413C21.021 16.8043 20.55 17 20 17H6ZM11 4H15V2H11V4Z" fill="#F8F8FF"/>
</svg>
